<svg xmlns="http://www.w3.org/2000/svg" xmlns:xlink="http://www.w3.org/1999/xlink" width="394" height="1156" viewBox="0 0 394 1156"><defs><style>.a{fill:#fff;stroke:#707070;}.b{clip-path:url(#a);}.c{fill:  #00c5d4  ;opacity:0.06;}</style><clipPath id="a"><rect class="a" width="394" height="1156" transform="translate(0 1552)"/></clipPath></defs><g class="b" transform="translate(0 -1552)"><path class="c" d="M103.189,446.8c19.423-36,46.142-65.388,76.767-84.425,33.792-21.005,71.342-29.2,107.338-42.8s72.4-34.42,94.928-73.127c28.485-48.946,29.555-117.149,56.192-167.8C467.745,22.87,523.57-1.273,575.794.052S678.274,24.045,728.117,44.2,829.99,82.414,881.833,74.183c-19.287,109,8.779,221.237,28.142,330.216,14.58,82.062,23.392,172.981-8.474,246.446C866.325,731.943,788.8,769.669,716.816,767c-68.9-2.556-134.562-35.492-200.559-61.162s-23.812,270.83-89.7,296.943c-60.5,23.976-62.143,80.887-118.284,118.592-29.692,19.94-170.229-112.332-152.484-211.815,6.685-37.478-59.087-161.921-50.058-198.719,10.28-41.89,20.273-68.99,29.282-111.331C144.605,554.4,82.315,485.5,103.189,446.8Z" transform="matrix(-0.819, 0.574, -0.574, -0.819, 725.246, 2284.935)"/></g></svg>